<svg width="24" height="24" viewBox="0 0 24 24" fill="none" xmlns="http://www.w3.org/2000/svg">
<path fill-rule="evenodd" clip-rule="evenodd" d="M15.6621 15.6636C15.8014 15.5241 15.9669 15.4135 16.149 15.338C16.3311 15.2625 16.5263 15.2236 16.7234 15.2236C16.9205 15.2236 17.1157 15.2625 17.2979 15.338C17.48 15.4135 17.6454 15.5241 17.7847 15.6636L23.5601 21.439C23.8416 21.7202 23.9998 22.1018 23.9999 22.4998C24.0001 22.8977 23.8421 23.2794 23.5608 23.5608C23.2796 23.8423 22.898 24.0005 22.5001 24.0007C22.1021 24.0008 21.7204 23.8429 21.439 23.5616L15.6636 17.7862C15.5241 17.6469 15.4135 17.4815 15.338 17.2994C15.2625 17.1172 15.2236 16.922 15.2236 16.7249C15.2236 16.5278 15.2625 16.3326 15.338 16.1505C15.4135 15.9684 15.5241 15.8029 15.6636 15.6636H15.6621Z" fill="#FA5856"/>
<path fill-rule="evenodd" clip-rule="evenodd" d="M9.75063 18.0012C10.8341 18.0012 11.907 17.7878 12.908 17.3731C13.909 16.9585 14.8185 16.3508 15.5846 15.5846C16.3508 14.8185 16.9585 13.909 17.3731 12.908C17.7878 11.907 18.0012 10.8341 18.0012 9.75063C18.0012 8.66715 17.7878 7.59429 17.3731 6.59329C16.9585 5.59229 16.3508 4.68275 15.5846 3.91662C14.8185 3.15049 13.909 2.54276 12.908 2.12813C11.907 1.7135 10.8341 1.5001 9.75063 1.5001C7.56245 1.5001 5.4639 2.36935 3.91662 3.91662C2.36935 5.4639 1.5001 7.56245 1.5001 9.75063C1.5001 11.9388 2.36935 14.0374 3.91662 15.5846C5.4639 17.1319 7.56245 18.0012 9.75063 18.0012ZM19.5013 9.75063C19.5013 12.3367 18.474 14.8168 16.6454 16.6454C14.8168 18.474 12.3367 19.5013 9.75063 19.5013C7.1646 19.5013 4.68449 18.474 2.85589 16.6454C1.0273 14.8168 0 12.3367 0 9.75063C0 7.1646 1.0273 4.68449 2.85589 2.85589C4.68449 1.0273 7.1646 0 9.75063 0C12.3367 0 14.8168 1.0273 16.6454 2.85589C18.474 4.68449 19.5013 7.1646 19.5013 9.75063Z" fill="#FA5856"/>
</svg>
